<svg width="31" height="31" viewBox="0 0 31 31" fill="none" xmlns="http://www.w3.org/2000/svg">
<path d="M28.8946 20.446C28.0039 22.5523 26.6109 24.4083 24.8372 25.8518C23.0635 27.2953 20.9632 28.2824 18.72 28.7267C16.4767 29.171 14.1588 29.059 11.9688 28.4005C9.77878 27.742 7.78344 26.5571 6.15719 24.9493C4.53094 23.3415 3.3233 21.3598 2.63985 19.1775C1.9564 16.9952 1.81795 14.6787 2.2366 12.4305C2.65525 10.1823 3.61826 8.07087 5.04143 6.28083C6.4646 4.49079 8.3046 3.07663 10.4006 2.16199" stroke="#FFEAA7" stroke-width="3" stroke-linecap="round" stroke-linejoin="round"/>
<path style="transform: translateX(13px)" d="M16.0006 16C16.0006 14.1615 15.6385 12.341 14.9349 10.6424C14.2313 8.94387 13.2001 7.40053 11.9001 6.1005C10.6001 4.80048 9.05671 3.76925 7.35815 3.06569C5.65959 2.36212 3.83909 2 2.00058 2V16H16.0006Z" stroke="#FFEAA7" stroke-width="3" stroke-linecap="round" stroke-linejoin="round"/>
</svg>
